<svg width="18" height="17" viewBox="0 0 18 17" fill="none" xmlns="http://www.w3.org/2000/svg">
    <g clip-path="url(#clip0_183_116)">
        <path d="M9 16.2844C8.90895 16.2844 8.81793 16.2609 8.73637 16.2138C8.64777 16.1627 6.54294 14.9406 4.4079 13.0992C3.14249 12.0078 2.13238 10.9253 1.40571 9.88191C0.465348 8.5317 -0.00753804 7.23296 9.08466e-05 6.02172C0.00902052 4.61231 0.513828 3.28685 1.42163 2.28947C2.34476 1.27529 3.5767 0.716797 4.8906 0.716797C6.57447 0.716797 8.114 1.66004 9.00004 3.15425C9.88608 1.66007 11.4256 0.716797 13.1095 0.716797C14.3508 0.716797 15.5351 1.22073 16.4444 2.13577C17.4422 3.13994 18.0092 4.55877 17.9999 6.0284C17.9922 7.23753 17.5105 8.5343 16.5681 9.88265C15.8391 10.9256 14.8304 12.0075 13.57 13.0986C11.4428 14.9398 9.35304 16.1619 9.26511 16.213C9.18317 16.2606 9.09155 16.2844 9 16.2844Z" fill="white"/>
    </g>
    <defs>
        <clipPath id="clip0_183_116">
            <rect width="18" height="16" fill="white" transform="translate(0 0.5)"/>
        </clipPath>
    </defs>
</svg>
